<?xml version="1.0" standalone="no"?>
<!DOCTYPE svg PUBLIC "-//W3C//DTD SVG 20010904//EN"
 "http://www.w3.org/TR/2001/REC-SVG-20010904/DTD/svg10.dtd">
<svg version="1.0" xmlns="http://www.w3.org/2000/svg"
 width="762.000000pt" height="620.000000pt" viewBox="0 0 762.000000 620.000000"
 preserveAspectRatio="xMidYMid meet">

<g transform="translate(0.000000,620.000000) scale(0.100000,-0.100000)"
fill="#000000" stroke="none">
<path d="M5460 5510 c-789 -3 -1436 -6 -1437 -8 -2 -1 -3 -218 -3 -481 l0
-479 53 -4 c28 -3 178 -6 332 -6 311 -2 1139 -13 1142 -16 1 0 -207 -213 -462
-471 -255 -259 -464 -473 -465 -477 0 -10 165 -14 789 -16 l565 -3 488 488
488 488 0 492 c0 419 -2 493 -14 493 -8 0 -20 1 -28 3 -7 1 -659 0 -1448 -3z"/>
<path d="M1865 5499 c-319 -44 -602 -186 -841 -424 -180 -178 -288 -353 -369
-600 -34 -101 -65 -282 -65 -373 l0 -50 47 -4 c88 -8 636 -9 780 -2 l142 7 15
71 c31 135 89 228 189 303 82 61 131 82 219 93 265 33 490 -123 548 -380 6
-30 14 -63 17 -72 4 -17 36 -18 490 -18 l486 0 -6 103 c-18 327 -161 645 -401
894 -225 235 -495 384 -791 438 -108 20 -363 28 -460 14z"/>
<path d="M1072 2084 l-483 -485 3 -484 c2 -326 6 -487 14 -495 13 -13 2888
-10 2901 3 4 5 9 224 11 488 l3 479 -633 0 c-348 1 -667 2 -708 4 -41 2 -99 4
-128 5 l-54 1 27 33 c56 67 150 163 529 545 l391 392 -695 0 -695 -1 -483
-485z"/>
<path d="M4100 2080 l-75 -5 -3 -58 c-7 -132 56 -390 138 -565 135 -287 405
-557 692 -692 125 -58 283 -108 400 -126 131 -20 439 -14 538 10 297 74 526
201 731 405 263 264 419 612 419 937 l0 94 -479 0 -478 0 -13 -62 c-35 -179
-128 -301 -290 -381 -63 -31 -68 -32 -195 -32 -128 0 -132 1 -200 34 -48 24
-92 57 -141 105 -78 79 -115 145 -134 242 -7 34 -16 67 -21 75 -6 10 -43 16
-136 21 -149 7 -644 6 -753 -2z"/>
</g>
</svg>
