<svg width="31" height="29" viewBox="0 0 31 29" fill="none" xmlns="http://www.w3.org/2000/svg">
<g clip-path="url(#clip0_1350_10)">
<path d="M29.6702 7.72665C29.4487 7.631 29.188 7.66437 29.0037 7.81045C24.4376 11.4007 18.61 16.0027 16.7765 17.5351C15.7474 18.3967 14.3192 18.3967 13.2877 17.534C11.3333 15.9007 4.78912 10.7406 1.06174 7.8104C0.876172 7.66432 0.614961 7.63209 0.395234 7.7266C0.174336 7.82176 0.0327148 8.0267 0.0327148 8.25257V22.8311C0.0327148 24.11 1.15391 25.1499 2.53273 25.1499H27.5328C28.9115 25.1499 30.0327 24.11 30.0327 22.8311V8.25257C30.0327 8.0267 29.8911 7.82122 29.6702 7.72665Z" fill="white"/>
<path d="M0.65914 4.98009C4.77652 8.21432 12.0012 13.9043 14.1247 15.6785C14.4097 15.9179 14.7155 16.0396 15.0329 16.0396C15.3496 16.0396 15.6549 15.919 15.9393 15.6807C18.0645 13.9049 25.2893 8.21432 29.4067 4.98009C29.663 4.77912 29.7021 4.42586 29.4946 4.18016C29.0148 3.6124 28.2995 3.28687 27.5329 3.28687H2.53291C1.76633 3.28687 1.05096 3.6124 0.571249 4.18022C0.36371 4.42586 0.402792 4.77912 0.65914 4.98009Z" fill="white"/>
</g>
<defs>
<clipPath id="clip0_1350_10">
<rect width="30" height="27.8255" fill="white" transform="translate(0.0327148 0.80249)"/>
</clipPath>
</defs>
</svg>
