<svg width="31" height="31" viewBox="0 0 31 31" fill="none" xmlns="http://www.w3.org/2000/svg">
<path fill-rule="evenodd" clip-rule="evenodd" d="M15.2866 30.6628C23.5709 30.6628 30.2866 23.9471 30.2866 15.6628C30.2866 7.37857 23.5709 0.662842 15.2866 0.662842C7.00235 0.662842 0.286621 7.37857 0.286621 15.6628C0.286621 23.9471 7.00235 30.6628 15.2866 30.6628Z" fill="#2FC7F7"/>
<path d="M22.8279 14.7975L11.5323 10.1415C11.0564 9.94531 10.5188 10.0316 10.1293 10.3666C9.73981 10.7016 9.57689 11.2178 9.70421 11.7137L10.7096 15.6304H15.6322C15.8587 15.6304 16.0424 15.8128 16.0424 16.0379C16.0424 16.2629 15.8587 16.4453 15.6322 16.4453H10.7096L9.70421 20.362C9.57689 20.8579 9.73978 21.3741 10.1293 21.7091C10.5196 22.0448 11.0573 22.13 11.5323 21.9342L22.8279 17.2782C23.3422 17.0663 23.6616 16.591 23.6616 16.0379C23.6616 15.4847 23.3422 15.0094 22.8279 14.7975Z" fill="white"/>
</svg>
